<?xml version="1.0" encoding="UTF-8"?>
<svg xmlns="http://www.w3.org/2000/svg" xmlns:xlink="http://www.w3.org/1999/xlink" width="54px" height="54px" viewBox="0 0 54 54" version="1.1">
<g id="surface1">
<path style=" stroke:none;fill-rule:nonzero;fill:rgb(0.392157%,41.176471%,76.47059%);fill-opacity:1;" d="M 22.894531 8.710938 C 25.601562 8.710938 28.3125 8.710938 31.105469 8.710938 C 31.105469 8.875 31.105469 9.039062 31.105469 9.207031 C 31.351562 9.230469 31.601562 9.253906 31.859375 9.28125 C 32.921875 9.433594 33.792969 9.824219 34.746094 10.3125 C 34.917969 10.398438 35.089844 10.484375 35.265625 10.578125 C 38.523438 12.296875 41.679688 14.789062 43.296875 18.164062 C 43.296875 18.328125 43.296875 18.492188 43.296875 18.664062 C 43.515625 18.6875 43.726562 18.714844 43.949219 18.742188 C 46.90625 19.339844 49.609375 21.5625 51.351562 23.945312 C 53.03125 26.566406 53.644531 28.679688 53.625 31.789062 C 53.625 32.21875 53.625 32.21875 53.621094 32.660156 C 53.546875 36.0625 52.582031 38.285156 50.265625 40.8125 C 50.132812 40.96875 49.996094 41.125 49.859375 41.289062 C 48.398438 42.898438 46.347656 44.101562 44.296875 44.792969 C 43.96875 44.792969 43.640625 44.792969 43.296875 44.792969 C 43.296875 44.957031 43.296875 45.121094 43.296875 45.289062 C 37.328125 45.523438 37.328125 45.523438 34.957031 44.273438 C 33.992188 43.917969 33.304688 44.203125 32.390625 44.585938 C 31.851562 44.792969 31.851562 44.792969 30.859375 44.792969 C 30.859375 44.957031 30.859375 45.121094 30.859375 45.289062 C 28.3125 45.289062 25.765625 45.289062 23.140625 45.289062 C 23.140625 45.125 23.140625 44.960938 23.140625 44.792969 C 22.898438 44.761719 22.648438 44.730469 22.398438 44.699219 C 21.703125 44.609375 21.070312 44.445312 20.40625 44.234375 C 19.3125 43.941406 18.667969 44.292969 17.667969 44.792969 C 17.339844 44.792969 17.011719 44.792969 16.671875 44.792969 C 16.671875 44.957031 16.671875 45.121094 16.671875 45.289062 C 14.703125 45.289062 12.730469 45.289062 10.703125 45.289062 C 10.703125 45.125 10.703125 44.960938 10.703125 44.792969 C 10.445312 44.765625 10.191406 44.742188 9.929688 44.71875 C 6.625 44.125 4.164062 41.734375 2.226562 39.152344 C 0.804688 36.722656 0.265625 34.605469 0.296875 31.789062 C 0.296875 31.472656 0.296875 31.15625 0.304688 30.828125 C 0.410156 27.203125 1.632812 24.753906 4.179688 22.15625 C 5.984375 20.492188 8.171875 18.863281 10.703125 18.664062 C 10.726562 18.523438 10.757812 18.375 10.789062 18.230469 C 11.789062 14.765625 15.457031 12.390625 18.414062 10.703125 C 19.882812 9.921875 21.226562 9.320312 22.894531 9.207031 C 22.894531 9.042969 22.894531 8.878906 22.894531 8.710938 Z M 22.894531 8.710938 "/>
<path style=" stroke:none;fill-rule:nonzero;fill:rgb(28.627452%,89.019608%,99.215686%);fill-opacity:1;" d="M 45.789062 19.410156 C 45.992188 19.515625 46.203125 19.621094 46.414062 19.730469 C 49.730469 21.554688 52.210938 24.335938 53.359375 27.976562 C 53.640625 29.238281 53.632812 30.503906 53.625 31.789062 C 53.625 32.078125 53.625 32.367188 53.621094 32.660156 C 53.546875 36.0625 52.582031 38.285156 50.265625 40.8125 C 50.132812 40.96875 49.996094 41.125 49.859375 41.289062 C 48.398438 42.898438 46.347656 44.101562 44.296875 44.792969 C 43.96875 44.792969 43.640625 44.792969 43.296875 44.792969 C 43.296875 44.957031 43.296875 45.121094 43.296875 45.289062 C 37.960938 45.5 34.792969 44.929688 30.730469 41.242188 C 27.835938 38.292969 27.042969 34.90625 27.027344 30.910156 C 27.054688 28.867188 27.28125 27.390625 28.367188 25.632812 C 28.53125 25.34375 28.53125 25.34375 28.695312 25.046875 C 30.542969 21.992188 33.101562 20.242188 36.332031 18.914062 C 39.320312 18.214844 43.046875 17.875 45.789062 19.410156 Z M 45.789062 19.410156 "/>
<path style=" stroke:none;fill-rule:nonzero;fill:rgb(29.411766%,90.196079%,99.607843%);fill-opacity:1;" d="M 10.703125 18.664062 C 10.65625 18.796875 10.609375 18.929688 10.5625 19.066406 C 10.46875 19.34375 10.46875 19.34375 10.375 19.625 C 10.3125 19.804688 10.25 19.984375 10.1875 20.171875 C 10.109375 20.414062 10.035156 20.65625 9.953125 20.902344 C 9.890625 21.078125 9.828125 21.25 9.765625 21.425781 C 9.171875 23.164062 9.09375 24.769531 9.113281 26.59375 C 9.109375 26.867188 9.109375 27.140625 9.105469 27.421875 C 9.117188 30.109375 9.648438 32.523438 10.902344 34.898438 C 10.992188 35.070312 11.078125 35.242188 11.164062 35.414062 C 11.8125 36.648438 12.539062 37.757812 13.4375 38.820312 C 13.617188 39.066406 13.796875 39.3125 13.984375 39.566406 C 15.460938 41.3125 17.644531 42.515625 19.65625 43.546875 C 19.039062 44.203125 18.539062 44.515625 17.667969 44.792969 C 17.339844 44.792969 17.011719 44.792969 16.671875 44.792969 C 16.671875 44.957031 16.671875 45.121094 16.671875 45.289062 C 14.703125 45.289062 12.730469 45.289062 10.703125 45.289062 C 10.703125 45.125 10.703125 44.960938 10.703125 44.792969 C 10.445312 44.765625 10.191406 44.742188 9.929688 44.71875 C 6.625 44.125 4.164062 41.734375 2.226562 39.152344 C 0.804688 36.722656 0.265625 34.605469 0.296875 31.789062 C 0.296875 31.472656 0.296875 31.15625 0.304688 30.828125 C 0.410156 27.203125 1.632812 24.753906 4.179688 22.15625 C 5.875 20.589844 8.28125 18.664062 10.703125 18.664062 Z M 10.703125 18.664062 "/>
</g>
</svg>
