<svg width="52" height="51" version="1.1" xmlns="http://www.w3.org/2000/svg" desc="Created with imagetracer.js version 1.2.6" ><path fill="rgb(0,0,0)" stroke="rgb(0,0,0)" stroke-width="1" opacity="0" d="M 0 0 L 52 0 L 52 51 L 0 51 L 0 0 Z M 17 8 L 14 9 L 6 18 L 18 28 L 12 35 L 12 43 L 23 43 L 29 37 L 35 43 L 37 43 L 44 36 L 37 28 L 39 27 L 47 18 Q 49 19 48 16 L 40 8 L 29 18 L 17 8 Z " /><path fill="rgb(67,65,188)" stroke="rgb(67,65,188)" stroke-width="1" opacity="0.3333333333333333" d="M 16.5 8 L 28.5 18 L 31 16.5 L 27.5 19 L 16.5 9 L 15 9.5 L 16.5 8 Z " /><path fill="rgb(67,65,188)" stroke="rgb(67,65,188)" stroke-width="1" opacity="0.3333333333333333" d="M 38.5 8 L 41 9.5 L 39.5 9 L 34.5 13 L 38.5 8 Z " /><path fill="rgb(67,65,188)" stroke="rgb(67,65,188)" stroke-width="1" opacity="0.3333333333333333" d="M 42.5 10 L 48 15.5 L 48 17.5 L 47 17.5 L 47 15.5 L 42.5 10 Z " /><path fill="rgb(67,65,188)" stroke="rgb(67,65,188)" stroke-width="1" opacity="0.3333333333333333" d="M 37.5 28 L 44 35.5 L 36 42.5 L 43 34.5 L 37.5 28 Z " /><path fill="rgb(67,65,188)" stroke="rgb(67,65,188)" stroke-width="1" opacity="0.3333333333333333" d="M 17.5 29 L 12.5 35 L 17.5 29 Z " /><path fill="rgb(67,65,188)" stroke="rgb(67,65,188)" stroke-width="1" opacity="0.3333333333333333" d="M 28.5 36 L 34.5 43 L 28.5 36 Z " /><path fill="rgb(172,129,96)" stroke="rgb(172,129,96)" stroke-width="1" opacity="0.984313725490196" d="M 32.5 24 L 20.5 37 L 32.5 24 Z " /><path fill="rgb(172,129,96)" stroke="rgb(172,129,96)" stroke-width="1" opacity="0.984313725490196" d="M 17.5 35 L 18.5 37 L 17.5 35 Z " /><path fill="rgb(172,129,96)" stroke="rgb(172,129,96)" stroke-width="1" opacity="0.984313725490196" d="M 15.5 37 L 20.5 43 L 15.5 37 Z " /><path fill="rgb(64,186,246)" stroke="rgb(64,186,246)" stroke-width="1" opacity="0.9803921568627451" d="M 12.5 10 Q 16.5 9.5 17 12.5 L 14 16.5 Q 15.2 19 19 18 L 18 20.5 L 22 21 L 21 23.5 L 22 25.5 L 18.5 29 L 7 17.5 L 12.5 10 Z " /><path fill="rgb(64,186,246)" stroke="rgb(64,186,246)" stroke-width="1" opacity="0.9803921568627451" d="M 34.5 13 L 41 18.5 L 43 21.5 L 23.5 41 L 20 37.5 L 33 24.5 L 35 20.5 L 31 16.5 L 34.5 13 Z " /><path fill="rgb(64,186,246)" stroke="rgb(64,186,246)" stroke-width="1" opacity="0.9803921568627451" d="M 33 34 Q 36.3 32.9 35 37 Q 31.7 38.1 33 34 Z " /><path fill="rgb(62,163,239)" stroke="rgb(62,163,239)" stroke-width="1" opacity="0.1450980392156863" d="M 10.5 12 L 7 16.5 L 17 27.5 L 6 17.5 L 10.5 12 Z " /><path fill="rgb(62,163,239)" stroke="rgb(62,163,239)" stroke-width="1" opacity="0.1450980392156863" d="M 33.5 13 L 31.5 16 L 33.5 13 Z " /><path fill="rgb(62,163,239)" stroke="rgb(62,163,239)" stroke-width="1" opacity="0.1450980392156863" d="M 43.5 21 L 38.5 27 L 43.5 21 Z " /><path fill="rgb(62,163,239)" stroke="rgb(62,163,239)" stroke-width="1" opacity="0.1450980392156863" d="M 27.5 37 L 23.5 42 L 27.5 37 Z " /><path fill="rgb(252,132,4)" stroke="rgb(252,132,4)" stroke-width="1" opacity="0.9725490196078431" d="M 32.5 19 L 35 20.5 L 19.5 37 L 17 34.5 L 32.5 19 Z " /><path fill="rgb(252,132,4)" stroke="rgb(252,132,4)" stroke-width="1" opacity="0.9725490196078431" d="M 12.5 35 L 19.5 43 L 12 43 L 12.5 35 Z " /><path fill="rgb(67,68,207)" stroke="rgb(67,68,207)" stroke-width="1" opacity="0.9921568627450981" d="M 16.5 9 L 28.5 19 L 31.5 17 L 33 18.5 L 17 34.5 L 18.5 37 L 23 40.5 L 21.5 43 L 13 35.5 L 22 24.5 L 22 22.5 Q 22.9 19.5 18.5 21 L 19 19.5 Q 19.9 16.5 15.5 18 Q 11.7 15.7 17 13.5 L 15 10.5 L 16.5 9 Z " /><path fill="rgb(67,68,207)" stroke="rgb(67,68,207)" stroke-width="1" opacity="0.9921568627450981" d="M 38.5 9 Q 44.6 10.4 47 15.5 Q 47.5 19.5 44.5 20 L 42.5 21 L 37.5 15 L 35 13.5 L 38.5 9 Z " /><path fill="rgb(67,68,207)" stroke="rgb(67,68,207)" stroke-width="1" opacity="0.9921568627450981" d="M 36.5 28 L 43 35.5 L 35.5 43 L 29 36.5 L 36.5 28 Z M 33 34 Q 32 38 35 37 Q 36 33 33 34 Z " /></svg>