<svg width="52" height="52" version="1.1" xmlns="http://www.w3.org/2000/svg" desc="Created with imagetracer.js version 1.2.6" ><path fill="rgb(81,188,244)" stroke="rgb(81,188,244)" stroke-width="1" opacity="0.9803921568627451" d="M 27.5 7 Q 35.3 8.2 39 13.5 Q 42 17.5 41 25.5 Q 39.7 31.3 35 33.5 L 35 41.5 L 33 45 L 27 47 L 27 41.5 L 28.5 41 L 29.5 39 L 23 39 L 23 36 L 30 35.5 L 23 35 L 23 33 L 29.5 33 L 30 31.5 L 35 27.5 L 36 18.5 L 31.5 13 L 27 12 L 27.5 7 Z " /><path fill="rgb(0,0,0)" stroke="rgb(0,0,0)" stroke-width="1" opacity="0" d="M 0 0 L 52 0 L 52 52 L 0 52 L 0 0 Z M 17 5 L 15 7 L 20 11 L 14 18 L 14 27 L 19 33 Q 18 42 24 45 Q 27 44 26 47 L 33 46 L 36 41 L 36 34 L 38 33 L 42 26 Q 43 17 40 14 L 32 7 Q 25 5 26 9 L 22 10 L 21 8 Q 21 5 17 5 Z M 12 10 L 10 12 L 14 16 Q 18 14 15 12 L 12 10 Z M 8 19 Q 6 25 13 23 Q 15 17 8 19 Z " /><path fill="rgb(253,142,3)" stroke="rgb(253,142,3)" stroke-width="1" opacity="0.11372549019607843" d="M 16.5 5 L 16 6.5 L 18.5 10 L 15 6.5 L 16.5 5 Z " /><path fill="rgb(253,142,3)" stroke="rgb(253,142,3)" stroke-width="1" opacity="0.11372549019607843" d="M 18.5 5 L 20.5 8 L 18.5 5 Z " /><path fill="rgb(253,142,3)" stroke="rgb(253,142,3)" stroke-width="1" opacity="0.11372549019607843" d="M 11.5 10 L 13 10.5 L 11 11 L 14 15.5 L 10 12.5 L 11.5 10 Z " /><path fill="rgb(253,142,3)" stroke="rgb(253,142,3)" stroke-width="1" opacity="0.11372549019607843" d="M 14.5 12 L 15.5 14 L 14.5 12 Z " /><path fill="rgb(253,142,3)" stroke="rgb(253,142,3)" stroke-width="1" opacity="0.11372549019607843" d="M 8.5 19 L 13 19.5 L 8.5 20 L 8.5 19 Z " /><path fill="rgb(253,142,3)" stroke="rgb(253,142,3)" stroke-width="1" opacity="0.11372549019607843" d="M 8.5 22 L 13 22.5 L 8.5 23 L 8.5 22 Z " /><path fill="rgb(210,140,75)" stroke="rgb(210,140,75)" stroke-width="1" opacity="1" d="M 24.5 12 L 29 12.5 L 24.5 13 L 24.5 12 Z " /><path fill="rgb(210,140,75)" stroke="rgb(210,140,75)" stroke-width="1" opacity="1" d="M 31.5 13 L 34.5 17 L 31.5 13 Z " /><path fill="rgb(210,140,75)" stroke="rgb(210,140,75)" stroke-width="1" opacity="1" d="M 19.5 16 L 18.5 18 L 19.5 16 Z " /><path fill="rgb(210,140,75)" stroke="rgb(210,140,75)" stroke-width="1" opacity="1" d="M 17.5 20 L 18 24.5 L 17 24.5 L 17.5 20 Z " /><path fill="rgb(210,140,75)" stroke="rgb(210,140,75)" stroke-width="1" opacity="1" d="M 34.5 27 L 32.5 30 L 34.5 27 Z " /><path fill="rgb(210,140,75)" stroke="rgb(210,140,75)" stroke-width="1" opacity="1" d="M 23.5 32 L 30 32.5 L 23.5 33 L 23.5 32 Z " /><path fill="rgb(254,132,4)" stroke="rgb(254,132,4)" stroke-width="1" opacity="0.984313725490196" d="M 17.5 5 L 21 8.5 L 19.5 10 L 16 6.5 L 17.5 5 Z " /><path fill="rgb(254,132,4)" stroke="rgb(254,132,4)" stroke-width="1" opacity="0.984313725490196" d="M 11.5 11 L 15 13.5 Q 15.8 15.8 13.5 15 L 12.5 12 L 11.5 11 Z " /><path fill="rgb(255,132,5)" stroke="rgb(255,132,5)" stroke-width="1" opacity="1" d="M 17.5 6 L 19.5 9 L 17.5 6 Z " /><path fill="rgb(255,132,5)" stroke="rgb(255,132,5)" stroke-width="1" opacity="1" d="M 11.5 12 L 14 13.5 L 12.5 13 L 11.5 12 Z " /><path fill="rgb(255,132,5)" stroke="rgb(255,132,5)" stroke-width="1" opacity="1" d="M 23.5 13 Q 33.3 11.3 35 17.5 L 36 24.5 L 31.5 30 L 30 30 L 29.5 32 L 23 32 Q 24.1 29.3 21.5 30 Q 16.5 27.5 18 18.5 L 21.5 14 L 23.5 13 Z " /><path fill="rgb(255,132,5)" stroke="rgb(255,132,5)" stroke-width="1" opacity="1" d="M 9.5 20 L 12 20.5 Q 12.7 23.5 9 22 L 9.5 20 Z " /><path fill="rgb(63,65,199)" stroke="rgb(63,65,199)" stroke-width="1" opacity="0.8470588235294118" d="M 22.5 9 Q 28.8 7.1 27 12 Q 20.6 12.2 18 17.5 L 17 24.5 L 23 31.5 L 23 35 L 30 35.5 L 23 36 L 23 39 L 29.5 39 L 28.5 41 L 27 41 L 27 45 L 23.5 45 Q 17.8 42.2 19 32.5 L 14 26.5 L 14 17.5 L 20.5 10 L 22.5 9 Z " /><path fill="rgb(46,188,251)" stroke="rgb(46,188,251)" stroke-width="1" opacity="0.6078431372549019" d="M 28.5 7 Q 36.8 7.8 40 13.5 Q 43.3 17.2 42 25.5 L 37.5 33 L 36 33.5 L 36 40.5 L 35 40.5 L 35 33.5 Q 42.3 30.3 41 18.5 Q 39.8 12.8 35.5 10 L 28.5 8 L 28.5 7 Z " /><path fill="rgb(46,188,251)" stroke="rgb(46,188,251)" stroke-width="1" opacity="0.6078431372549019" d="M 34.5 42 L 34 43.5 L 32.5 46 L 29.5 47 L 29.5 46 L 33 45 L 34.5 42 Z " /></svg>