<?xml version="1.0" encoding="UTF-8"?>
<svg xmlns="http://www.w3.org/2000/svg" xmlns:xlink="http://www.w3.org/1999/xlink" width="54px" height="54px" viewBox="0 0 54 54" version="1.1">
<g id="surface1">
<path style=" stroke:none;fill-rule:nonzero;fill:rgb(9.019608%,75.686276%,28.235295%);fill-opacity:1;" d="M 23.625 32.589844 C 23.695312 32.617188 23.769531 32.644531 23.84375 32.671875 C 26.925781 33.84375 30.050781 34.621094 33.328125 35.015625 C 33.40625 35.023438 33.488281 35.035156 33.570312 35.046875 C 35.015625 35.214844 36.453125 35.261719 37.910156 35.261719 C 38.257812 35.257812 38.605469 35.261719 38.953125 35.265625 C 40.449219 35.269531 41.902344 35.152344 43.382812 34.949219 C 43.792969 34.894531 44.203125 34.847656 44.613281 34.804688 C 45.832031 36.390625 46.320312 38.105469 46.0625 40.085938 C 45.699219 42.203125 44.480469 43.925781 43.03125 45.457031 C 42.914062 45.585938 42.914062 45.585938 42.792969 45.714844 C 40.636719 47.980469 37.347656 49.726562 34.1875 49.8125 C 32.316406 49.828125 30.609375 49.324219 29.230469 48.011719 C 25.839844 44.664062 23.816406 37.765625 23.613281 33.097656 C 23.613281 32.929688 23.621094 32.757812 23.625 32.589844 Z M 23.625 32.589844 "/>
<path style=" stroke:none;fill-rule:nonzero;fill:rgb(11.372549%,50.980395%,96.862745%);fill-opacity:1;" d="M 21.621094 26.15625 C 21.621094 26.289062 21.617188 26.417969 21.617188 26.554688 C 21.539062 33.113281 22.273438 40.582031 25.855469 46.285156 C 25.972656 46.578125 25.929688 46.742188 25.839844 47.039062 C 25.632812 47.351562 25.363281 47.613281 25.101562 47.882812 C 25.027344 47.960938 24.953125 48.039062 24.875 48.121094 C 23.488281 49.480469 21.84375 49.828125 19.964844 49.820312 C 16.433594 49.757812 13.328125 47.703125 10.902344 45.285156 C 9.808594 44.132812 8.972656 42.84375 8.4375 41.34375 C 8.402344 41.246094 8.367188 41.144531 8.328125 41.042969 C 7.808594 39.339844 8.03125 37.46875 8.828125 35.890625 C 9.191406 35.265625 9.648438 34.71875 10.125 34.171875 C 10.199219 34.085938 10.269531 34 10.34375 33.914062 C 11.4375 32.65625 12.699219 31.582031 14.027344 30.585938 C 14.097656 30.535156 14.164062 30.480469 14.234375 30.429688 C 16.335938 28.832031 18.632812 27.550781 20.988281 26.367188 C 21.101562 26.308594 21.101562 26.308594 21.214844 26.246094 C 21.410156 26.15625 21.410156 26.15625 21.621094 26.15625 Z M 21.621094 26.15625 "/>
<path style=" stroke:none;fill-rule:nonzero;fill:rgb(92.54902%,47.058824%,70.588237%);fill-opacity:1;" d="M 20.867188 16.621094 C 20.976562 16.707031 21.085938 16.789062 21.199219 16.875 C 21.285156 16.941406 21.285156 16.941406 21.375 17.007812 C 22.578125 17.914062 23.730469 18.863281 24.835938 19.890625 C 24.996094 20.039062 25.164062 20.1875 25.328125 20.335938 C 25.960938 20.90625 26.554688 21.496094 27.105469 22.148438 C 26.859375 22.394531 26.730469 22.417969 26.402344 22.5 C 26.246094 22.539062 26.246094 22.539062 26.089844 22.582031 C 25.976562 22.609375 25.863281 22.640625 25.746094 22.667969 C 22.53125 23.535156 19.511719 24.972656 16.664062 26.683594 C 16.535156 26.761719 16.535156 26.761719 16.40625 26.839844 C 14.371094 28.070312 12.460938 29.484375 10.703125 31.085938 C 10.523438 31.25 10.339844 31.414062 10.15625 31.578125 C 10.0625 31.660156 9.96875 31.742188 9.875 31.824219 C 9.792969 31.898438 9.707031 31.972656 9.621094 32.046875 C 9.378906 32.28125 9.171875 32.53125 8.964844 32.800781 C 7.316406 32.410156 5.949219 31.535156 5.015625 30.117188 C 4.089844 28.597656 3.773438 27.042969 3.769531 25.285156 C 3.769531 25.214844 3.769531 25.144531 3.769531 25.070312 C 3.777344 21.40625 5.171875 17.828125 7.714844 15.164062 C 11.792969 11.171875 16.988281 13.734375 20.867188 16.621094 Z M 20.867188 16.621094 "/>
<path style=" stroke:none;fill-rule:nonzero;fill:rgb(97.647059%,15.686275%,12.54902%);fill-opacity:1;" d="M 34.527344 6.425781 C 34.691406 6.566406 34.855469 6.710938 35.015625 6.855469 C 35.089844 6.917969 35.164062 6.980469 35.238281 7.042969 C 36.449219 8.144531 37.074219 9.722656 37.164062 11.332031 C 37.328125 16.484375 35.132812 21.730469 32.695312 26.15625 C 32.589844 26.15625 32.488281 26.15625 32.378906 26.15625 C 32.210938 25.914062 32.0625 25.679688 31.917969 25.425781 C 30.84375 23.636719 29.492188 21.988281 28.007812 20.519531 C 27.820312 20.332031 27.648438 20.136719 27.480469 19.933594 C 27.183594 19.585938 26.863281 19.289062 26.515625 18.996094 C 26.253906 18.765625 26.003906 18.53125 25.75 18.292969 C 25.03125 17.613281 24.289062 16.984375 23.5 16.390625 C 23.300781 16.238281 23.101562 16.082031 22.902344 15.929688 C 21.019531 14.484375 19.011719 13.265625 16.875 12.234375 C 16.773438 10.402344 17.332031 8.679688 18.53125 7.285156 C 19.859375 5.933594 21.59375 5.097656 23.414062 4.640625 C 23.53125 4.609375 23.648438 4.578125 23.773438 4.546875 C 27.226562 3.777344 31.667969 4.207031 34.527344 6.425781 Z M 34.527344 6.425781 "/>
<path style=" stroke:none;fill-rule:nonzero;fill:rgb(100%,70.19608%,0%);fill-opacity:1;" d="M 45.015625 14.003906 C 45.523438 14.359375 45.96875 14.753906 46.40625 15.1875 C 46.519531 15.292969 46.519531 15.292969 46.632812 15.398438 C 48.269531 16.953125 49.25 19.179688 49.859375 21.316406 C 49.882812 21.390625 49.902344 21.464844 49.925781 21.539062 C 50.242188 22.710938 50.347656 23.882812 50.339844 25.09375 C 50.339844 25.289062 50.339844 25.289062 50.339844 25.488281 C 50.328125 26.386719 50.273438 27.195312 49.992188 28.054688 C 49.941406 28.226562 49.941406 28.226562 49.886719 28.398438 C 49.308594 30.09375 48.207031 31.347656 46.644531 32.210938 C 42.273438 34.34375 34.902344 34.152344 30.375 32.695312 C 30.714844 32.238281 31.058594 31.789062 31.414062 31.34375 C 32.945312 29.425781 34.175781 27.304688 35.234375 25.09375 C 35.332031 24.890625 35.433594 24.6875 35.535156 24.484375 C 37.242188 21.007812 38.378906 17.226562 38.917969 13.394531 C 41.0625 12.761719 43.089844 12.789062 45.015625 14.003906 Z M 45.015625 14.003906 "/>
</g>
</svg>
