<?xml version="1.0" encoding="UTF-8"?>
<svg xmlns="http://www.w3.org/2000/svg" xmlns:xlink="http://www.w3.org/1999/xlink" width="54px" height="54px" viewBox="0 0 54 54" version="1.1">
<g id="surface1">
<path style=" stroke:none;fill-rule:nonzero;fill:rgb(76.078433%,0%,89.019608%);fill-opacity:1;" d="M 28.117188 2.242188 C 38.359375 7.101562 46.03125 26.324219 49.863281 36.207031 C 50.019531 36.609375 50.019531 36.609375 50.179688 37.015625 C 51.160156 39.609375 51.890625 41.976562 51.882812 44.761719 C 51.890625 44.988281 51.898438 45.214844 51.90625 45.445312 C 51.910156 46.574219 51.894531 47.109375 51.195312 48.023438 C 45.125 52.535156 35.53125 51.882812 28.351562 51.859375 C 27.226562 51.851562 26.101562 51.855469 24.976562 51.859375 C 7.414062 51.917969 7.414062 51.917969 2.738281 47.78125 C 1.726562 46.265625 2.039062 43.929688 2.347656 42.1875 C 5.226562 29.328125 14.367188 10.851562 25.132812 2.738281 C 26.109375 2.171875 27.007812 2.019531 28.117188 2.242188 Z M 25.132812 13.1875 C 24.992188 13.304688 24.855469 13.421875 24.710938 13.539062 C 20.25 17.628906 17.203125 23.765625 14.648438 29.164062 C 14.429688 29.617188 14.203125 30.074219 13.976562 30.527344 C 11.429688 35.695312 11.429688 35.695312 10.949219 41.308594 C 11.875 42.796875 13.5625 43.15625 15.179688 43.546875 C 23.070312 45.078125 34.929688 46.3125 42.304688 42.304688 C 43.023438 41.851562 43.023438 41.851562 43.296875 41.0625 C 43.996094 33.414062 37.054688 23.578125 32.847656 17.667969 C 32.734375 17.511719 32.625 17.355469 32.511719 17.195312 C 30.367188 14.144531 30.367188 14.144531 27.328125 12.132812 C 26.375 12.21875 25.835938 12.585938 25.132812 13.1875 Z M 25.132812 13.1875 "/>
<path style=" stroke:none;fill-rule:nonzero;fill:rgb(0%,60.784316%,100%);fill-opacity:1;" d="M 27.871094 22.398438 C 28.351562 22.796875 28.710938 23.171875 29.117188 23.640625 C 29.257812 23.800781 29.398438 23.960938 29.546875 24.125 C 31.695312 26.65625 33.332031 29.578125 34.605469 32.632812 C 34.710938 32.886719 34.710938 32.886719 34.820312 33.148438 C 35.238281 34.195312 35.585938 35.1875 35.585938 36.332031 C 34.296875 37.921875 32.800781 38.066406 30.859375 38.320312 C 29.601562 38.410156 28.351562 38.414062 27.09375 38.398438 C 26.777344 38.398438 26.460938 38.402344 26.140625 38.402344 C 20.5625 38.371094 20.5625 38.371094 18.914062 37.078125 C 18.132812 33.753906 20.757812 29.914062 22.398438 27.125 C 25.792969 21.71875 25.792969 21.71875 27.871094 22.398438 Z M 27.871094 22.398438 "/>
</g>
</svg>
