<svg width="52" height="52" version="1.1" xmlns="http://www.w3.org/2000/svg" desc="Created with imagetracer.js version 1.2.6" ><path fill="rgb(223,173,216)" stroke="rgb(223,173,216)" stroke-width="1" opacity="1" d="M 24.5 8 L 25 9.5 L 22 10.5 L 22 12 L 17 12 L 17 14 L 13.5 14 L 13.5 13 L 15 12.5 L 14 9 L 20.5 9 L 21.5 10 L 24.5 8 Z " /><path fill="rgb(223,173,216)" stroke="rgb(223,173,216)" stroke-width="1" opacity="1" d="M 27 10 Q 30 9 29 12 Q 26 13 27 10 Z " /><path fill="rgb(223,173,216)" stroke="rgb(223,173,216)" stroke-width="1" opacity="1" d="M 31 10 Q 34 9 33 12 Q 30 13 31 10 Z " /><path fill="rgb(223,173,216)" stroke="rgb(223,173,216)" stroke-width="1" opacity="1" d="M 35 10 Q 38 9 37 12 Q 34 13 35 10 Z " /><path fill="rgb(0,0,0)" stroke="rgb(0,0,0)" stroke-width="1" opacity="0.24313725490196078" d="M 16.5 47 Q 33.7 44.8 44 49.5 L 42.5 51 Q 37.8 49.8 36.5 52 L 15.5 52 Q 14.2 49.8 9.5 51 L 8 49.5 L 16.5 47 Z " /><path fill="rgb(0,0,0)" stroke="rgb(0,0,0)" stroke-width="1" opacity="0" d="M 0 0 L 52 0 L 52 52 L 37 51.5 Q 42.4 52.4 44 49.5 Q 33.7 44.8 16.5 47 L 8 49.5 Q 9.6 52.4 15 51.5 L 0 52 L 0 0 Z M 12 8 L 12 27 L 17 29 Q 16 32 11 31 L 9 33 L 9 42 Q 10 44 14 43 L 14 44 Q 11 43 12 46 L 20 46 Q 18 42 22 43 L 23 42 L 23 33 L 20 31 Q 22 26 30 28 L 32 31 L 29 32 L 29 43 L 33 44 L 32 46 L 40 46 L 40 44 L 38 44 L 42 43 L 43 42 L 43 33 Q 42 30 38 31 L 35 29 L 39 28 L 40 27 L 40 10 L 39 8 L 12 8 Z " /><path fill="rgb(71,178,213)" stroke="rgb(71,178,213)" stroke-width="1" opacity="0.984313725490196" d="M 37.5 14 L 39 14.5 L 39 27 L 31.5 28 L 30.5 27 L 21.5 27 L 18.5 28 L 18.5 27 Q 21.8 28.1 21 25.5 L 24.5 23 L 35 23 Q 33.3 15.9 37.5 14 Z " /><path fill="rgb(71,178,213)" stroke="rgb(71,178,213)" stroke-width="1" opacity="0.984313725490196" d="M 10.5 39 L 22 39.5 L 10.5 40 L 10.5 39 Z " /><path fill="rgb(71,178,213)" stroke="rgb(71,178,213)" stroke-width="1" opacity="0.984313725490196" d="M 29.5 39 L 42 39.5 L 29.5 40 L 29.5 39 Z " /><path fill="rgb(78,210,242)" stroke="rgb(78,210,242)" stroke-width="1" opacity="0.996078431372549" d="M 13 14 L 37 14.5 Q 33.3 16.4 35 23 L 24.5 23 L 21 25.5 L 20.5 27 L 13 27 L 13 14 Z " /><path fill="rgb(78,210,242)" stroke="rgb(78,210,242)" stroke-width="1" opacity="0.996078431372549" d="M 10 32 L 22 32 L 22 39 L 10 39 L 10 32 Z " /><path fill="rgb(78,210,242)" stroke="rgb(78,210,242)" stroke-width="1" opacity="0.996078431372549" d="M 30.5 32 L 42 32 L 42 39 L 29 39 L 29 33.5 L 30.5 32 Z " /><path fill="rgb(76,189,227)" stroke="rgb(76,189,227)" stroke-width="1" opacity="0.5098039215686274" d="M 14.5 27 L 18 27.5 L 14.5 28 L 14.5 27 Z " /><path fill="rgb(76,189,227)" stroke="rgb(76,189,227)" stroke-width="1" opacity="0.5098039215686274" d="M 22.5 27 L 30 27.5 L 22.5 28 L 22.5 27 Z " /><path fill="rgb(76,189,227)" stroke="rgb(76,189,227)" stroke-width="1" opacity="0.5098039215686274" d="M 33.5 27 L 38 27.5 L 33.5 28 L 33.5 27 Z " /><path fill="rgb(76,189,227)" stroke="rgb(76,189,227)" stroke-width="1" opacity="0.5098039215686274" d="M 22.5 32 L 23 39.5 L 22 39.5 L 22.5 32 Z " /><path fill="rgb(70,216,244)" stroke="rgb(70,216,244)" stroke-width="1" opacity="0.28627450980392155" d="M 12.5 14 L 13 20.5 L 12 20.5 L 12.5 14 Z " /><path fill="rgb(70,216,244)" stroke="rgb(70,216,244)" stroke-width="1" opacity="0.28627450980392155" d="M 11.5 31 L 14 31.5 L 11.5 32 L 11.5 31 Z " /><path fill="rgb(70,216,244)" stroke="rgb(70,216,244)" stroke-width="1" opacity="0.28627450980392155" d="M 29.5 31 L 32 31.5 L 29.5 32 L 29.5 31 Z " /><path fill="rgb(70,216,244)" stroke="rgb(70,216,244)" stroke-width="1" opacity="0.28627450980392155" d="M 38.5 31 L 41 31.5 L 38.5 32 L 38.5 31 Z " /><path fill="rgb(70,216,244)" stroke="rgb(70,216,244)" stroke-width="1" opacity="0.28627450980392155" d="M 9.5 32 L 10 38.5 L 9 38.5 L 9.5 32 Z " /><path fill="rgb(70,216,244)" stroke="rgb(70,216,244)" stroke-width="1" opacity="0.28627450980392155" d="M 42.5 33 L 43 38.5 L 42 38.5 L 42.5 33 Z " /><path fill="rgb(83,191,224)" stroke="rgb(83,191,224)" stroke-width="1" opacity="0.10980392156862745" d="M 39.5 14 L 40 26.5 L 38 27.5 L 39 26.5 L 39.5 14 Z " /><path fill="rgb(83,191,224)" stroke="rgb(83,191,224)" stroke-width="1" opacity="0.10980392156862745" d="M 12.5 21 L 13 26.5 L 12 26.5 L 12.5 21 Z " /><path fill="rgb(83,191,224)" stroke="rgb(83,191,224)" stroke-width="1" opacity="0.10980392156862745" d="M 41.5 31 L 42.5 33 L 41.5 31 Z " /><path fill="rgb(157,61,196)" stroke="rgb(157,61,196)" stroke-width="1" opacity="0.9725490196078431" d="M 14.5 8 L 24 8.5 L 22 9.5 Q 23.5 12.5 25 9.5 L 25.5 8 L 37.5 8 Q 40.3 9.4 39 14 L 17.5 14 L 17 12 L 22 12 L 22 10.5 L 20.5 9 L 14 9 L 15 12.5 L 13 13 Q 12 9.2 14.5 8 Z M 27 10 Q 26 13 29 12 Q 30 9 27 10 Z M 31 10 Q 30 13 33 12 Q 34 9 31 10 Z M 35 10 Q 34 13 37 12 Q 38 9 35 10 Z " /><path fill="rgb(157,61,196)" stroke="rgb(157,61,196)" stroke-width="1" opacity="0.9725490196078431" d="M 21.5 27 L 19 30.5 Q 19.9 33.5 15.5 32 L 18.5 28 L 21.5 27 Z " /><path fill="rgb(157,61,196)" stroke="rgb(157,61,196)" stroke-width="1" opacity="0.9725490196078431" d="M 30.5 27 L 35 29 L 36 31.5 L 33 32 L 30.5 27 Z " /><path fill="rgb(157,61,196)" stroke="rgb(157,61,196)" stroke-width="1" opacity="0.9725490196078431" d="M 10 40 L 21.5 40 L 22 42 L 18 42 L 18 43.5 L 18.5 45 L 13 44.5 L 15 44 L 15 42 L 10 42 L 10 40 Z " /><path fill="rgb(157,61,196)" stroke="rgb(157,61,196)" stroke-width="1" opacity="0.9725490196078431" d="M 29.5 40 L 41.5 40 L 42 42 L 37 42 L 37 44 L 39 44.5 L 33.5 45 L 34 43.5 Q 34.9 40.5 30.5 42 L 29.5 40 Z " /><path fill="rgb(159,50,195)" stroke="rgb(159,50,195)" stroke-width="1" opacity="0.09411764705882353" d="M 12.5 9 L 13 13.5 L 12 13.5 L 12.5 9 Z " /><path fill="rgb(159,50,195)" stroke="rgb(159,50,195)" stroke-width="1" opacity="0.09411764705882353" d="M 39.5 9 L 40 13.5 L 39 13.5 L 39.5 9 Z " /><path fill="rgb(159,50,195)" stroke="rgb(159,50,195)" stroke-width="1" opacity="0.09411764705882353" d="M 17.5 28 L 15.5 31 L 17.5 28 Z " /><path fill="rgb(159,50,195)" stroke="rgb(159,50,195)" stroke-width="1" opacity="0.09411764705882353" d="M 34.5 28 L 36.5 31 L 34.5 28 Z " /><path fill="rgb(159,50,195)" stroke="rgb(159,50,195)" stroke-width="1" opacity="0.09411764705882353" d="M 42.5 40 L 43 41.5 Q 42.3 43.8 38.5 43 L 38.5 42 Q 43 43.3 42.5 40 Z " /><path fill="rgb(159,50,195)" stroke="rgb(159,50,195)" stroke-width="1" opacity="0.09411764705882353" d="M 9.5 41 L 14 42.5 L 10.5 43 L 9.5 41 Z " /><path fill="rgb(159,50,195)" stroke="rgb(159,50,195)" stroke-width="1" opacity="0.09411764705882353" d="M 18.5 42 L 22 42.5 L 19.5 44 L 18.5 42 Z " /><path fill="rgb(159,50,195)" stroke="rgb(159,50,195)" stroke-width="1" opacity="0.09411764705882353" d="M 29.5 42 Q 34.9 40.1 34 43.5 L 32.5 43 Q 28.5 43.8 29.5 42 Z " /><path fill="rgb(167,52,203)" stroke="rgb(167,52,203)" stroke-width="1" opacity="0.42745098039215684" d="M 21.5 28 L 19.5 31 L 21.5 28 Z " /><path fill="rgb(167,52,203)" stroke="rgb(167,52,203)" stroke-width="1" opacity="0.42745098039215684" d="M 30.5 28 L 32.5 31 L 30.5 28 Z " /><path fill="rgb(167,52,203)" stroke="rgb(167,52,203)" stroke-width="1" opacity="0.42745098039215684" d="M 35.5 30 L 36.5 32 L 35.5 30 Z " /><path fill="rgb(167,52,203)" stroke="rgb(167,52,203)" stroke-width="1" opacity="0.42745098039215684" d="M 19.5 44 L 18.5 46 L 13 45.5 L 19.5 44 Z " /><path fill="rgb(167,52,203)" stroke="rgb(167,52,203)" stroke-width="1" opacity="0.42745098039215684" d="M 32.5 44 L 39 45.5 L 33.5 46 L 32.5 44 Z " /></svg>