<?xml version="1.0" encoding="UTF-8"?>
<svg xmlns="http://www.w3.org/2000/svg" xmlns:xlink="http://www.w3.org/1999/xlink" width="54px" height="54px" viewBox="0 0 54 54" version="1.1">
<g id="surface1">
<path style=" stroke:none;fill-rule:nonzero;fill:rgb(0%,50.980395%,78.823531%);fill-opacity:1;" d="M 33.308594 16.367188 C 35.789062 18.0625 37.234375 19.976562 38.570312 22.644531 C 38.8125 22.390625 38.8125 22.390625 39.054688 22.132812 C 41.007812 20.1875 42.679688 19.058594 45.460938 19.054688 C 47.953125 19.058594 49.511719 19.648438 51.355469 21.351562 C 53.214844 23.339844 53.59375 25.308594 53.570312 27.96875 C 53.414062 30.042969 52.523438 31.6875 51.015625 33.097656 C 49.230469 34.578125 47.433594 35.1875 45.09375 35.140625 C 42.265625 34.867188 40.457031 33.335938 38.570312 31.355469 C 38.515625 31.5 38.453125 31.644531 38.394531 31.796875 C 37.15625 34.578125 34.941406 37.109375 32.101562 38.320312 C 30.390625 38.953125 28.835938 39.199219 27.015625 39.179688 C 26.789062 39.175781 26.554688 39.171875 26.320312 39.171875 C 24.601562 39.128906 23.175781 38.910156 21.648438 38.074219 C 21.417969 37.949219 21.1875 37.828125 20.949219 37.699219 C 18.59375 36.320312 16.738281 34.390625 15.679688 31.851562 C 15.679688 31.605469 15.679688 31.359375 15.679688 31.105469 C 15.515625 31.273438 15.351562 31.445312 15.179688 31.617188 C 14.617188 32.171875 14.050781 32.71875 13.46875 33.25 C 13.316406 33.394531 13.164062 33.535156 13.003906 33.679688 C 11.558594 34.734375 10.253906 34.976562 8.507812 34.960938 C 8.3125 34.960938 8.113281 34.960938 7.90625 34.960938 C 5.683594 34.890625 4.265625 34.148438 2.644531 32.648438 C 0.828125 30.703125 0.378906 28.710938 0.429688 26.097656 C 0.570312 24.117188 1.3125 22.546875 2.738281 21.152344 C 4.523438 19.710938 6.605469 18.726562 8.945312 18.84375 C 11.679688 19.214844 13.527344 20.476562 15.179688 22.644531 C 15.753906 21.910156 16.226562 21.148438 16.703125 20.34375 C 18.375 17.726562 20.875 15.9375 23.863281 15.039062 C 27.019531 14.390625 30.574219 14.671875 33.308594 16.367188 Z M 21.324219 22.109375 C 19.96875 23.835938 19.453125 25.679688 19.65625 27.871094 C 20.089844 30.167969 21.078125 31.828125 22.988281 33.1875 C 24.6875 34.242188 26.496094 34.640625 28.480469 34.207031 C 30.582031 33.632812 32.109375 32.667969 33.34375 30.859375 C 34.414062 28.929688 34.695312 27.046875 34.160156 24.902344 C 33.398438 22.609375 32.273438 21.414062 30.210938 20.207031 C 27.140625 18.675781 23.554688 19.691406 21.324219 22.109375 Z M 5.785156 25.070312 C 5.167969 26.179688 5.148438 27.078125 5.476562 28.289062 C 6.078125 29.289062 6.601562 29.773438 7.714844 30.109375 C 8.851562 30.21875 9.671875 29.96875 10.5625 29.257812 C 11.34375 28.46875 11.488281 28.125 11.507812 27.046875 C 11.492188 26.039062 11.375 25.425781 10.703125 24.636719 C 9.8125 23.898438 9.0625 23.773438 7.945312 23.820312 C 7.007812 23.960938 6.4375 24.414062 5.785156 25.070312 Z M 42.710938 25.601562 C 42.402344 26.640625 42.46875 27.402344 42.847656 28.414062 C 43.363281 29.214844 43.664062 29.507812 44.542969 29.859375 C 45.757812 29.996094 46.285156 29.992188 47.375 29.425781 C 48.3125 28.625 48.492188 28.242188 48.601562 27.015625 C 48.5 25.851562 48.140625 25.285156 47.375 24.433594 C 45.671875 23.582031 43.835938 24.0625 42.710938 25.601562 Z M 42.710938 25.601562 "/>
</g>
</svg>
