<?xml version="1.0" encoding="UTF-8"?>
<svg xmlns="http://www.w3.org/2000/svg" xmlns:xlink="http://www.w3.org/1999/xlink" width="54px" height="54px" viewBox="0 0 54 54" version="1.1">
<g id="surface1">
<path style=" stroke:none;fill-rule:nonzero;fill:rgb(59.215689%,1.960784%,4.313726%);fill-opacity:1;" d="M 10.203125 1.242188 C 13.367188 1.097656 16.007812 1.121094 18.914062 2.488281 C 18.914062 2.652344 18.914062 2.816406 18.914062 2.984375 C 19.085938 3 19.257812 3.011719 19.4375 3.023438 C 20.414062 3.308594 21.007812 3.902344 21.726562 4.585938 C 21.867188 4.710938 22 4.835938 22.140625 4.96875 C 22.488281 5.289062 22.816406 5.632812 23.140625 5.972656 C 23.140625 6.136719 23.140625 6.300781 23.140625 6.46875 C 23.304688 6.46875 23.46875 6.46875 23.640625 6.46875 C 25.019531 8.929688 26.179688 11.132812 26.625 13.9375 C 26.671875 13.769531 26.71875 13.601562 26.765625 13.433594 C 27.597656 10.789062 29.203125 8.636719 31.601562 7.21875 C 33.574219 6.234375 35.421875 6.179688 37.578125 6.21875 C 37.757812 9.203125 37.054688 11.421875 35.195312 13.765625 C 34.996094 13.984375 34.796875 14.203125 34.589844 14.433594 C 34.425781 14.433594 34.261719 14.433594 34.09375 14.433594 C 34.09375 14.597656 34.09375 14.761719 34.09375 14.929688 C 32.664062 16 30.710938 17.171875 28.867188 17.171875 C 28.867188 17.335938 28.867188 17.5 28.867188 17.667969 C 29.101562 17.667969 29.335938 17.667969 29.582031 17.667969 C 31.839844 17.992188 33.816406 20.554688 35.351562 22.101562 C 35.554688 22.296875 35.757812 22.5 35.960938 22.703125 C 36.382812 23.125 36.800781 23.546875 37.21875 23.964844 C 37.859375 24.609375 38.507812 25.253906 39.152344 25.898438 C 39.5625 26.304688 39.96875 26.710938 40.375 27.125 C 40.570312 27.3125 40.765625 27.507812 40.964844 27.707031 C 41.140625 27.882812 41.316406 28.0625 41.5 28.242188 C 41.734375 28.480469 41.734375 28.480469 41.96875 28.71875 C 42.304688 29.117188 42.304688 29.117188 42.304688 29.613281 C 42.550781 29.695312 42.796875 29.777344 43.050781 29.859375 C 44.402344 31.234375 44.71875 32.589844 44.710938 34.472656 C 44.703125 34.75 44.695312 35.023438 44.683594 35.304688 C 44.683594 35.585938 44.683594 35.867188 44.679688 36.15625 C 44.648438 38.199219 44.648438 38.199219 44.1875 38.738281 C 44.058594 38.847656 43.929688 38.957031 43.796875 39.070312 C 43.667969 39.289062 43.539062 39.507812 43.40625 39.738281 C 43.289062 39.929688 43.171875 40.117188 43.050781 40.3125 C 42.886719 40.3125 42.722656 40.3125 42.554688 40.3125 C 42.46875 40.5625 42.390625 40.804688 42.304688 41.0625 C 42.140625 41.0625 41.976562 41.0625 41.804688 41.0625 C 41.726562 41.304688 41.640625 41.554688 41.554688 41.804688 C 41.390625 41.804688 41.226562 41.804688 41.0625 41.804688 C 41.0625 41.96875 41.0625 42.132812 41.0625 42.304688 C 40.898438 42.304688 40.730469 42.304688 40.5625 42.304688 C 40.480469 42.550781 40.398438 42.796875 40.3125 43.050781 C 40.148438 43.050781 39.984375 43.050781 39.816406 43.050781 C 39.734375 43.296875 39.652344 43.542969 39.566406 43.796875 C 39.402344 43.796875 39.238281 43.796875 39.070312 43.796875 C 39.070312 43.960938 39.070312 44.125 39.070312 44.296875 C 38.90625 44.296875 38.742188 44.296875 38.570312 44.296875 C 38.492188 44.539062 38.40625 44.789062 38.320312 45.039062 C 38.15625 45.039062 37.992188 45.039062 37.824219 45.039062 C 37.742188 45.289062 37.660156 45.535156 37.578125 45.789062 C 37.414062 45.789062 37.25 45.789062 37.078125 45.789062 C 37.078125 45.953125 37.078125 46.117188 37.078125 46.285156 C 36.914062 46.285156 36.75 46.285156 36.578125 46.285156 C 36.5 46.53125 36.414062 46.78125 36.332031 47.03125 C 36.167969 47.03125 36.003906 47.03125 35.835938 47.03125 C 35.75 47.28125 35.671875 47.523438 35.585938 47.78125 C 35.421875 47.78125 35.257812 47.78125 35.085938 47.78125 C 35.085938 47.945312 35.085938 48.109375 35.085938 48.277344 C 34.921875 48.277344 34.757812 48.277344 34.589844 48.277344 C 34.507812 48.523438 34.425781 48.769531 34.34375 49.023438 C 34.179688 49.023438 34.011719 49.023438 33.84375 49.023438 C 33.761719 49.269531 33.679688 49.515625 33.59375 49.769531 C 33.429688 49.769531 33.265625 49.769531 33.097656 49.769531 C 33.097656 49.933594 33.097656 50.097656 33.097656 50.265625 C 32.929688 50.265625 32.765625 50.265625 32.601562 50.265625 C 32.601562 50.429688 32.601562 50.59375 32.601562 50.765625 C 32.144531 51.125 32.144531 51.125 31.539062 51.511719 C 31.34375 51.640625 31.148438 51.765625 30.945312 51.898438 C 29.570312 52.738281 28.625 52.839844 27.03125 52.835938 C 26.820312 52.835938 26.613281 52.84375 26.398438 52.84375 C 25.117188 52.847656 24.265625 52.695312 23.140625 52.007812 C 22.851562 51.863281 22.851562 51.863281 22.554688 51.710938 C 22.417969 51.648438 22.285156 51.578125 22.148438 51.511719 C 22.148438 51.347656 22.148438 51.183594 22.148438 51.015625 C 21.898438 50.929688 21.65625 50.851562 21.398438 50.765625 C 21.398438 50.601562 21.398438 50.4375 21.398438 50.265625 C 21.234375 50.265625 21.070312 50.265625 20.902344 50.265625 C 20.902344 50.101562 20.902344 49.9375 20.902344 49.769531 C 20.65625 49.6875 20.410156 49.605469 20.15625 49.523438 C 20.15625 49.359375 20.15625 49.191406 20.15625 49.023438 C 19.910156 48.941406 19.664062 48.859375 19.410156 48.773438 C 19.410156 48.609375 19.410156 48.445312 19.410156 48.277344 C 19.246094 48.277344 19.082031 48.277344 18.914062 48.277344 C 18.507812 47.933594 18.507812 47.933594 18.164062 47.53125 C 18.164062 47.367188 18.164062 47.203125 18.164062 47.03125 C 17.921875 46.949219 17.671875 46.867188 17.421875 46.78125 C 17.421875 46.617188 17.421875 46.453125 17.421875 46.285156 C 17.257812 46.285156 17.09375 46.285156 16.921875 46.285156 C 16.515625 45.945312 16.515625 45.945312 16.175781 45.539062 C 16.175781 45.375 16.175781 45.210938 16.175781 45.039062 C 15.929688 44.960938 15.679688 44.875 15.429688 44.792969 C 15.429688 44.628906 15.429688 44.464844 15.429688 44.296875 C 15.265625 44.296875 15.101562 44.296875 14.929688 44.296875 C 14.527344 43.953125 14.527344 43.953125 14.183594 43.546875 C 14.183594 43.382812 14.183594 43.21875 14.183594 43.050781 C 13.9375 42.96875 13.691406 42.886719 13.4375 42.804688 C 13.4375 42.636719 13.4375 42.472656 13.4375 42.304688 C 13.273438 42.304688 13.109375 42.304688 12.9375 42.304688 C 12.9375 42.140625 12.9375 41.976562 12.9375 41.804688 C 12.695312 41.726562 12.445312 41.640625 12.195312 41.554688 C 12.195312 41.390625 12.195312 41.226562 12.195312 41.0625 C 11.945312 40.976562 11.703125 40.898438 11.445312 40.8125 C 11.445312 40.648438 11.445312 40.484375 11.445312 40.3125 C 11.28125 40.3125 11.117188 40.3125 10.949219 40.3125 C 10.707031 39.867188 10.460938 39.421875 10.21875 38.976562 C 9.976562 38.53125 9.976562 38.53125 9.457031 38.320312 C 9.457031 36.105469 9.457031 33.890625 9.457031 31.601562 C 9.703125 31.601562 9.949219 31.601562 10.203125 31.601562 C 10.285156 31.195312 10.367188 30.78125 10.453125 30.359375 C 10.617188 30.359375 10.78125 30.359375 10.949219 30.359375 C 11.023438 30.164062 11.023438 30.164062 11.105469 29.960938 C 11.59375 29.113281 12.25 28.492188 12.9375 27.808594 C 13.078125 27.671875 13.210938 27.53125 13.351562 27.390625 C 14.371094 26.375 14.371094 26.375 14.929688 26.375 C 15.054688 26.007812 15.054688 26.007812 15.179688 25.632812 C 15.34375 25.632812 15.507812 25.632812 15.679688 25.632812 C 15.800781 25.261719 15.800781 25.261719 15.925781 24.882812 C 16.089844 24.882812 16.253906 24.882812 16.421875 24.882812 C 16.492188 24.726562 16.554688 24.566406 16.625 24.402344 C 16.921875 23.890625 16.921875 23.890625 17.667969 23.640625 C 17.75 23.476562 17.832031 23.3125 17.917969 23.140625 C 18.164062 22.644531 18.164062 22.644531 18.914062 22.398438 C 19.085938 22.070312 19.25 21.734375 19.410156 21.398438 C 19.820312 20.921875 19.820312 20.921875 20.28125 20.46875 C 20.429688 20.3125 20.585938 20.164062 20.742188 20.007812 C 21.152344 19.65625 21.152344 19.65625 21.648438 19.65625 C 21.648438 19.492188 21.648438 19.328125 21.648438 19.164062 C 22.863281 18.28125 24.179688 17.554688 25.632812 17.171875 C 25.070312 15.890625 24.320312 14.953125 23.390625 13.9375 C 23.507812 14.09375 23.625 14.253906 23.75 14.417969 C 24.257812 15.40625 24.320312 16.320312 24.386719 17.421875 C 21.160156 17.742188 18.175781 15.945312 15.648438 14.125 C 11.851562 10.492188 10.402344 6.347656 10.203125 1.242188 Z M 30.8125 30.328125 C 28.925781 31.402344 27.085938 31.679688 24.953125 31.203125 C 24.34375 31.023438 23.742188 30.820312 23.140625 30.609375 C 22.84375 30.511719 22.546875 30.414062 22.242188 30.3125 C 22.046875 30.246094 21.851562 30.179688 21.648438 30.109375 C 21.734375 30.25 21.820312 30.390625 21.90625 30.53125 C 23.601562 33.4375 23.476562 35.625 22.644531 38.820312 C 22.484375 39.320312 22.324219 39.820312 22.148438 40.3125 C 22.539062 40.082031 22.539062 40.082031 22.941406 39.847656 C 24.882812 38.703125 26.632812 38.621094 28.867188 38.820312 C 29.578125 39.035156 30.207031 39.289062 30.867188 39.625 C 31.394531 39.890625 31.394531 39.890625 32.101562 39.566406 C 31.929688 39.359375 31.929688 39.359375 31.757812 39.148438 C 30.695312 37.625 30.46875 35.75 30.726562 33.945312 C 30.902344 33.140625 31.148438 32.375 31.429688 31.601562 C 31.632812 31.03125 31.757812 30.460938 31.851562 29.859375 C 31.484375 29.839844 31.484375 29.839844 30.8125 30.328125 Z M 30.8125 30.328125 "/>
<path style=" stroke:none;fill-rule:nonzero;fill:rgb(14.509805%,85.882354%,16.078432%);fill-opacity:1;" d="M 10.203125 1.242188 C 13.367188 1.097656 16.007812 1.121094 18.914062 2.488281 C 18.914062 2.652344 18.914062 2.816406 18.914062 2.984375 C 19.085938 3 19.257812 3.011719 19.4375 3.023438 C 20.414062 3.308594 21.007812 3.902344 21.726562 4.585938 C 21.867188 4.710938 22 4.835938 22.140625 4.96875 C 22.488281 5.289062 22.816406 5.632812 23.140625 5.972656 C 23.140625 6.136719 23.140625 6.300781 23.140625 6.46875 C 23.304688 6.46875 23.46875 6.46875 23.640625 6.46875 C 25.019531 8.929688 26.179688 11.132812 26.625 13.9375 C 26.671875 13.769531 26.71875 13.601562 26.765625 13.433594 C 27.597656 10.789062 29.203125 8.636719 31.601562 7.21875 C 33.574219 6.234375 35.421875 6.179688 37.578125 6.21875 C 37.757812 9.203125 37.054688 11.421875 35.195312 13.765625 C 34.996094 13.984375 34.796875 14.203125 34.589844 14.433594 C 34.425781 14.433594 34.261719 14.433594 34.09375 14.433594 C 34.09375 14.597656 34.09375 14.761719 34.09375 14.929688 C 31.605469 16.796875 29.175781 17.28125 26.128906 17.421875 C 26.128906 17.257812 26.128906 17.09375 26.128906 16.921875 C 25.964844 16.921875 25.800781 16.921875 25.632812 16.921875 C 25.296875 16.429688 24.960938 15.929688 24.636719 15.429688 C 24.3125 15.085938 23.984375 14.75 23.640625 14.433594 C 23.765625 14.695312 23.886719 14.957031 24.015625 15.226562 C 24.34375 15.992188 24.460938 16.578125 24.386719 17.421875 C 21.160156 17.742188 18.175781 15.945312 15.648438 14.125 C 11.851562 10.492188 10.402344 6.347656 10.203125 1.242188 Z M 10.203125 1.242188 "/>
<path style=" stroke:none;fill-rule:nonzero;fill:rgb(96.078432%,4.705882%,9.803922%);fill-opacity:1;" d="M 27.34375 17.140625 C 27.628906 17.144531 27.914062 17.148438 28.210938 17.152344 C 28.429688 17.15625 28.644531 17.164062 28.867188 17.171875 C 28.867188 17.335938 28.867188 17.5 28.867188 17.667969 C 29.113281 17.679688 29.359375 17.6875 29.613281 17.699219 C 30.875 17.898438 31.75 18.457031 32.601562 19.410156 C 34.113281 21.960938 34.265625 25.015625 33.59375 27.871094 C 33.429688 27.871094 33.265625 27.871094 33.097656 27.871094 C 33.097656 28.117188 33.097656 28.363281 33.097656 28.617188 C 32.929688 28.617188 32.765625 28.617188 32.601562 28.617188 C 32.601562 28.863281 32.601562 29.109375 32.601562 29.363281 C 31.09375 30.941406 29.152344 31.625 27.015625 31.695312 C 24.460938 31.609375 22.382812 30.546875 20.15625 29.363281 C 20.15625 29.199219 20.15625 29.035156 20.15625 28.867188 C 16.023438 28.28125 16.023438 28.28125 12.246094 29.699219 C 12.117188 29.8125 11.984375 29.929688 11.851562 30.046875 C 11.527344 30.328125 11.527344 30.328125 11.195312 30.609375 C 10.953125 30.523438 10.703125 30.445312 10.453125 30.359375 C 10.617188 30.359375 10.78125 30.359375 10.949219 30.359375 C 11 30.226562 11.054688 30.09375 11.105469 29.960938 C 11.59375 29.113281 12.25 28.492188 12.9375 27.808594 C 13.144531 27.601562 13.144531 27.601562 13.351562 27.390625 C 14.371094 26.375 14.371094 26.375 14.929688 26.375 C 15.015625 26.132812 15.09375 25.882812 15.179688 25.632812 C 15.34375 25.632812 15.507812 25.632812 15.679688 25.632812 C 15.757812 25.382812 15.84375 25.140625 15.925781 24.882812 C 16.089844 24.882812 16.253906 24.882812 16.421875 24.882812 C 16.492188 24.726562 16.554688 24.566406 16.625 24.402344 C 16.921875 23.890625 16.921875 23.890625 17.667969 23.640625 C 17.75 23.476562 17.832031 23.3125 17.917969 23.140625 C 18.164062 22.644531 18.164062 22.644531 18.914062 22.398438 C 19.085938 22.070312 19.25 21.734375 19.410156 21.398438 C 19.820312 20.921875 19.820312 20.921875 20.28125 20.46875 C 20.507812 20.238281 20.507812 20.238281 20.742188 20.007812 C 21.152344 19.65625 21.152344 19.65625 21.648438 19.65625 C 21.648438 19.492188 21.648438 19.328125 21.648438 19.164062 C 22.140625 18.804688 22.140625 18.804688 22.800781 18.414062 C 23.015625 18.289062 23.226562 18.15625 23.445312 18.023438 C 24.773438 17.339844 25.851562 17.109375 27.34375 17.140625 Z M 27.34375 17.140625 "/>
<path style=" stroke:none;fill-rule:nonzero;fill:rgb(58.823532%,2.352941%,4.705882%);fill-opacity:1;" d="M 32.601562 19.65625 C 33.875 20.726562 35.074219 21.84375 36.253906 23.023438 C 36.429688 23.195312 36.601562 23.367188 36.78125 23.546875 C 37.148438 23.914062 37.507812 24.273438 37.875 24.640625 C 38.4375 25.199219 38.996094 25.757812 39.558594 26.3125 C 39.914062 26.667969 40.269531 27.023438 40.625 27.375 C 40.792969 27.546875 40.960938 27.710938 41.132812 27.882812 C 41.289062 28.039062 41.441406 28.191406 41.601562 28.351562 C 41.734375 28.484375 41.875 28.625 42.015625 28.765625 C 42.304688 29.117188 42.304688 29.117188 42.304688 29.613281 C 42.550781 29.695312 42.796875 29.777344 43.050781 29.859375 C 44.402344 31.234375 44.71875 32.589844 44.710938 34.472656 C 44.703125 34.75 44.695312 35.023438 44.683594 35.304688 C 44.683594 35.585938 44.683594 35.867188 44.679688 36.15625 C 44.648438 38.203125 44.648438 38.203125 44.183594 38.742188 C 44.054688 38.851562 43.929688 38.957031 43.796875 39.070312 C 43.6875 39.28125 43.582031 39.492188 43.46875 39.707031 C 42.921875 40.5 42.46875 40.542969 41.554688 40.8125 C 41.304688 40.980469 41.054688 41.148438 40.796875 41.324219 C 39.503906 42.175781 38.09375 42.195312 36.578125 42.054688 C 35.734375 41.851562 34.914062 41.597656 34.09375 41.308594 C 34.09375 41.144531 34.09375 40.980469 34.09375 40.8125 C 33.960938 40.796875 33.828125 40.78125 33.6875 40.765625 C 32.445312 40.339844 31.753906 39.609375 31.167969 38.476562 C 31.066406 38.179688 30.960938 37.882812 30.859375 37.578125 C 30.753906 37.304688 30.652344 37.03125 30.546875 36.75 C 30.015625 34.136719 31.050781 31.71875 32.101562 29.363281 C 32.265625 29.363281 32.429688 29.363281 32.601562 29.363281 C 32.601562 29.117188 32.601562 28.871094 32.601562 28.617188 C 32.765625 28.617188 32.929688 28.617188 33.097656 28.617188 C 33.097656 28.371094 33.097656 28.125 33.097656 27.871094 C 33.261719 27.871094 33.425781 27.871094 33.59375 27.871094 C 33.625 27.046875 33.640625 26.222656 33.65625 25.398438 C 33.664062 25.167969 33.671875 24.9375 33.679688 24.699219 C 33.703125 23.226562 33.503906 22.179688 32.8125 20.871094 C 32.601562 20.40625 32.601562 20.40625 32.601562 19.65625 Z M 32.601562 19.65625 "/>
<path style=" stroke:none;fill-rule:nonzero;fill:rgb(96.078432%,4.705882%,9.803922%);fill-opacity:1;" d="M 30.820312 39.296875 C 30.996094 39.386719 31.171875 39.476562 31.355469 39.566406 C 31.675781 39.703125 31.996094 39.835938 32.320312 39.96875 C 32.921875 40.234375 33.507812 40.507812 34.09375 40.8125 C 34.09375 40.976562 34.09375 41.140625 34.09375 41.308594 C 36.203125 41.804688 38.265625 42.21875 40.3125 41.308594 C 40.574219 41.132812 40.835938 40.960938 41.109375 40.78125 C 41.804688 40.3125 41.804688 40.3125 42.554688 40.3125 C 42.46875 40.5625 42.390625 40.804688 42.304688 41.0625 C 42.140625 41.0625 41.976562 41.0625 41.804688 41.0625 C 41.726562 41.304688 41.640625 41.554688 41.554688 41.804688 C 41.390625 41.804688 41.226562 41.804688 41.0625 41.804688 C 41.0625 41.96875 41.0625 42.132812 41.0625 42.304688 C 40.898438 42.304688 40.730469 42.304688 40.5625 42.304688 C 40.480469 42.550781 40.398438 42.796875 40.3125 43.050781 C 40.148438 43.050781 39.984375 43.050781 39.816406 43.050781 C 39.695312 43.421875 39.695312 43.421875 39.566406 43.796875 C 39.402344 43.796875 39.238281 43.796875 39.070312 43.796875 C 39.070312 43.960938 39.070312 44.125 39.070312 44.296875 C 38.90625 44.296875 38.742188 44.296875 38.570312 44.296875 C 38.449219 44.664062 38.449219 44.664062 38.320312 45.039062 C 38.15625 45.039062 37.992188 45.039062 37.824219 45.039062 C 37.703125 45.410156 37.703125 45.410156 37.578125 45.789062 C 37.414062 45.789062 37.25 45.789062 37.078125 45.789062 C 37.078125 45.953125 37.078125 46.117188 37.078125 46.285156 C 36.914062 46.285156 36.75 46.285156 36.578125 46.285156 C 36.5 46.53125 36.414062 46.78125 36.332031 47.03125 C 36.167969 47.03125 36.003906 47.03125 35.835938 47.03125 C 35.75 47.28125 35.671875 47.523438 35.585938 47.78125 C 35.421875 47.78125 35.257812 47.78125 35.085938 47.78125 C 35.085938 47.945312 35.085938 48.109375 35.085938 48.277344 C 34.921875 48.277344 34.757812 48.277344 34.589844 48.277344 C 34.507812 48.523438 34.425781 48.769531 34.34375 49.023438 C 34.179688 49.023438 34.011719 49.023438 33.84375 49.023438 C 33.761719 49.269531 33.679688 49.515625 33.59375 49.769531 C 33.429688 49.769531 33.265625 49.769531 33.097656 49.769531 C 33.097656 49.933594 33.097656 50.097656 33.097656 50.265625 C 32.929688 50.265625 32.765625 50.265625 32.601562 50.265625 C 32.601562 50.429688 32.601562 50.59375 32.601562 50.765625 C 32.144531 51.125 32.144531 51.125 31.539062 51.511719 C 31.34375 51.640625 31.148438 51.765625 30.945312 51.898438 C 29.324219 52.890625 27.890625 53.03125 26.011719 52.625 C 23.976562 51.984375 22.34375 51.085938 21.152344 49.273438 C 20.101562 47.253906 20.066406 44.746094 20.6875 42.585938 C 21.40625 40.734375 22.679688 39.644531 24.4375 38.808594 C 26.484375 38.113281 28.890625 38.390625 30.820312 39.296875 Z M 30.820312 39.296875 "/>
<path style=" stroke:none;fill-rule:nonzero;fill:rgb(72.156864%,2.745098%,5.098039%);fill-opacity:1;" d="M 20.65625 48.277344 C 21.152344 48.523438 21.152344 48.523438 21.585938 49.335938 C 22.273438 50.546875 23.007812 51.304688 24.335938 51.734375 C 24.824219 51.863281 25.3125 51.984375 25.804688 52.089844 C 26.089844 52.171875 26.089844 52.171875 26.375 52.257812 C 26.460938 52.421875 26.542969 52.585938 26.625 52.757812 C 25.207031 52.828125 24.398438 52.75 23.140625 52.007812 C 22.945312 51.914062 22.75 51.8125 22.554688 51.710938 C 22.417969 51.648438 22.285156 51.578125 22.148438 51.511719 C 22.148438 51.347656 22.148438 51.183594 22.148438 51.015625 C 21.898438 50.929688 21.65625 50.851562 21.398438 50.765625 C 21.398438 50.601562 21.398438 50.4375 21.398438 50.265625 C 21.234375 50.265625 21.070312 50.265625 20.902344 50.265625 C 20.65625 48.835938 20.65625 48.835938 20.65625 48.277344 Z M 20.65625 48.277344 "/>
<path style=" stroke:none;fill-rule:nonzero;fill:rgb(75.686276%,3.921569%,6.666667%);fill-opacity:1;" d="M 11.195312 30.359375 C 11.195312 30.605469 11.195312 30.851562 11.195312 31.105469 C 11.03125 31.105469 10.867188 31.105469 10.703125 31.105469 C 10.652344 31.28125 10.601562 31.460938 10.554688 31.640625 C 10.492188 31.871094 10.425781 32.101562 10.359375 32.335938 C 10.296875 32.5625 10.230469 32.789062 10.164062 33.023438 C 9.953125 33.59375 9.953125 33.59375 9.457031 33.84375 C 9.457031 33.101562 9.457031 32.367188 9.457031 31.601562 C 9.703125 31.601562 9.949219 31.601562 10.203125 31.601562 C 10.226562 31.445312 10.253906 31.285156 10.28125 31.121094 C 10.335938 30.953125 10.390625 30.78125 10.453125 30.609375 C 10.695312 30.523438 10.945312 30.445312 11.195312 30.359375 Z M 11.195312 30.359375 "/>
<path style=" stroke:none;fill-rule:nonzero;fill:rgb(80.784315%,3.921569%,7.843138%);fill-opacity:1;" d="M 23.140625 51.261719 C 23.679688 51.414062 24.210938 51.570312 24.742188 51.726562 C 25.191406 51.859375 25.191406 51.859375 25.648438 51.992188 C 26.375 52.257812 26.375 52.257812 26.625 52.757812 C 25.214844 52.828125 24.390625 52.757812 23.140625 52.007812 C 23.140625 51.765625 23.140625 51.515625 23.140625 51.261719 Z M 23.140625 51.261719 "/>
<path style=" stroke:none;fill-rule:nonzero;fill:rgb(78.823531%,3.137255%,6.666667%);fill-opacity:1;" d="M 29.613281 17.667969 C 30.734375 18.042969 31.757812 18.570312 32.601562 19.410156 C 32.882812 20.003906 32.980469 20.496094 33.097656 21.152344 C 32.351562 20.65625 32.351562 20.65625 32.007812 20.046875 C 31.546875 19.320312 31.097656 19.082031 30.359375 18.664062 C 30.359375 18.5 30.359375 18.335938 30.359375 18.164062 C 30.113281 18.164062 29.867188 18.164062 29.613281 18.164062 C 29.613281 18 29.613281 17.835938 29.613281 17.667969 Z M 29.613281 17.667969 "/>
<path style=" stroke:none;fill-rule:nonzero;fill:rgb(74.509805%,3.921569%,6.666667%);fill-opacity:1;" d="M 43.546875 37.824219 C 43.875 37.988281 44.203125 38.15625 44.542969 38.320312 C 44.382812 38.46875 44.382812 38.46875 44.21875 38.617188 C 43.734375 39.140625 43.402344 39.695312 43.050781 40.3125 C 42.722656 40.230469 42.394531 40.148438 42.054688 40.0625 C 42.371094 39.699219 42.6875 39.335938 43.003906 38.96875 C 43.351562 38.546875 43.351562 38.546875 43.546875 37.824219 Z M 43.546875 37.824219 "/>
<path style=" stroke:none;fill-rule:nonzero;fill:rgb(83.137256%,13.333334%,9.803922%);fill-opacity:1;" d="M 28.867188 17.171875 C 28.867188 17.5 28.867188 17.828125 28.867188 18.164062 C 28.703125 18.164062 28.539062 18.164062 28.367188 18.164062 C 28.367188 18 28.367188 17.835938 28.367188 17.667969 C 27.628906 17.667969 26.890625 17.667969 26.128906 17.667969 C 26.128906 17.585938 26.128906 17.503906 26.128906 17.421875 C 27.058594 17.277344 27.921875 17.171875 28.867188 17.171875 Z M 28.867188 17.171875 "/>
<path style=" stroke:none;fill-rule:nonzero;fill:rgb(12.54902%,97.254902%,18.82353%);fill-opacity:1;" d="M 27.871094 16.421875 C 28.691406 16.421875 29.515625 16.421875 30.359375 16.421875 C 30.359375 16.585938 30.359375 16.75 30.359375 16.921875 C 29.675781 17.09375 29.675781 17.09375 28.867188 17.171875 C 28.539062 16.921875 28.210938 16.679688 27.871094 16.421875 Z M 27.871094 16.421875 "/>
</g>
</svg>
