<?xml version="1.0" encoding="UTF-8"?>
<svg xmlns="http://www.w3.org/2000/svg" xmlns:xlink="http://www.w3.org/1999/xlink" width="54px" height="54px" viewBox="0 0 54 54" version="1.1">
<defs>
<linearGradient id="linear0" gradientUnits="userSpaceOnUse" x1="0.34012" y1="0" x2="0.76373" y2="0.76805" gradientTransform="matrix(1024,0,0,1024,0,0)">
<stop offset="0" style="stop-color:rgb(44.705882%,70.588235%,96.078431%);stop-opacity:1;"/>
<stop offset="1" style="stop-color:rgb(20.784314%,43.137255%,74.901961%);stop-opacity:1;"/>
</linearGradient>
</defs>
<g id="surface1">
<path style="fill-rule:evenodd;fill:url(#linear0);stroke-width:32;stroke-linecap:butt;stroke-linejoin:miter;stroke:rgb(85.490197%,93.725491%,100%);stroke-opacity:1;stroke-miterlimit:4;" d="M 1008 512 C 1008 238.074074 785.925926 16 512 16 C 238.074074 16 16 238.074074 16 512 C 16 785.925926 238.074074 1008 512 1008 C 785.925926 1008 1008 785.925926 1008 512 Z M 1008 512 " transform="matrix(0.0527344,0,0,0.0527344,0,0)"/>
<path style=" stroke:none;fill-rule:evenodd;fill:rgb(100%,100%,100%);fill-opacity:1;" d="M 37.59375 17.527344 C 39.9375 17.527344 41.753906 18.332031 43.046875 19.9375 C 44.347656 21.53125 45 23.792969 45 26.722656 C 45 29.652344 44.34375 31.929688 43.03125 33.558594 C 41.726562 35.175781 39.914062 35.984375 37.59375 35.984375 C 36.433594 35.984375 35.371094 35.769531 34.40625 35.347656 C 33.449219 34.914062 32.648438 34.253906 31.996094 33.363281 L 31.800781 33.363281 L 31.230469 35.65625 L 29.292969 35.65625 L 29.292969 10.335938 L 31.996094 10.335938 L 31.996094 16.488281 C 31.996094 17.863281 31.953125 19.101562 31.867188 20.199219 L 31.996094 20.199219 C 33.253906 18.417969 35.121094 17.527344 37.59375 17.527344 Z M 37.203125 19.789062 C 35.359375 19.789062 34.03125 20.324219 33.214844 21.386719 C 32.402344 22.4375 31.996094 24.21875 31.996094 26.722656 C 31.996094 29.230469 32.414062 31.023438 33.25 32.109375 C 34.085938 33.183594 35.425781 33.722656 37.269531 33.722656 C 38.929688 33.722656 40.164062 33.117188 40.980469 31.914062 C 41.792969 30.699219 42.199219 28.957031 42.199219 26.691406 C 42.199219 24.367188 41.792969 22.640625 40.980469 21.5 C 40.164062 20.359375 38.90625 19.789062 37.203125 19.789062 Z M 37.203125 19.789062 "/>
<path style=" stroke:none;fill-rule:evenodd;fill:rgb(78.431374%,90.980393%,100%);fill-opacity:1;" d="M 16.730469 33.722656 C 18.53125 33.722656 19.84375 33.238281 20.667969 32.273438 C 21.492188 31.308594 21.933594 29.679688 21.988281 27.390625 L 21.988281 26.789062 C 21.988281 24.292969 21.5625 22.496094 20.71875 21.402344 C 19.871094 20.304688 18.53125 19.757812 16.699219 19.757812 C 15.113281 19.757812 13.898438 20.375 13.054688 21.613281 C 12.21875 22.839844 11.800781 24.574219 11.800781 26.820312 C 11.800781 29.066406 12.210938 30.78125 13.039062 31.964844 C 13.871094 33.136719 15.105469 33.722656 16.730469 33.722656 Z M 16.324219 35.984375 C 14.023438 35.984375 12.230469 35.175781 10.9375 33.558594 C 9.648438 31.941406 9 29.683594 9 26.789062 C 9 23.871094 9.652344 21.589844 10.953125 19.953125 C 12.257812 18.316406 14.066406 17.496094 16.390625 17.496094 C 18.832031 17.496094 20.707031 18.417969 22.019531 20.261719 L 22.167969 20.261719 L 22.558594 17.820312 L 24.6875 17.820312 L 24.6875 43.664062 L 21.988281 43.664062 L 21.988281 36.03125 C 21.988281 34.945312 22.046875 34.023438 22.167969 33.265625 L 21.953125 33.265625 C 20.707031 35.078125 18.832031 35.984375 16.324219 35.984375 Z M 16.324219 35.984375 "/>
</g>
</svg>
