<svg width="52" height="52" version="1.1" xmlns="http://www.w3.org/2000/svg" desc="Created with imagetracer.js version 1.2.6" ><path fill="rgb(52,209,239)" stroke="rgb(52,209,239)" stroke-width="1" opacity="0.40784313725490196" d="M 29.5 4 Q 36 8 35 19.5 L 30.5 27 Q 26.1 28.5 27 25.5 Q 32.6 22.1 31 11.5 L 27 6.5 L 31 9.5 Q 33.3 12.7 32 19.5 L 28 25.5 L 29.5 26 Q 35.4 22.9 34 12.5 L 29.5 4 Z " /><path fill="rgb(52,209,239)" stroke="rgb(52,209,239)" stroke-width="1" opacity="0.40784313725490196" d="M 24 8 Q 27.8 7.3 29 10.5 L 30 18.5 L 26.5 24 Q 22.8 25.3 24 21.5 L 25 19.5 L 22.5 21 Q 20.3 21.8 21 19.5 Q 18.5 18 22 16.5 L 20 12.5 L 24 11 L 24 8 Z M 25 9 L 27 13 L 27 15 L 26 13 L 24 12 L 26 19 L 26 18 L 27 18 L 25 22 Q 24 24 27 23 L 29 19 L 28 11 L 25 9 Z M 22 12 L 23 16 L 22 18 L 23 20 Q 25 19 24 14 L 22 12 Z " /><path fill="rgb(0,0,0)" stroke="rgb(0,0,0)" stroke-width="1" opacity="0.24313725490196078" d="M 16.5 47 L 36.5 47 Q 37.8 49.2 42.5 48 L 44 49.5 L 37.5 52 L 15.5 52 L 9 49.5 L 10.5 48 Q 15.2 49.2 16.5 47 Z " /><path fill="rgb(0,0,0)" stroke="rgb(0,0,0)" stroke-width="1" opacity="0" d="M 0 0 L 52 0 L 52 52 L 38 51.5 Q 42.6 52.1 44 49.5 L 42.5 48 Q 37.8 49.2 36.5 47 L 16.5 47 Q 15.2 49.2 10.5 48 L 9 49.5 Q 10.4 52.1 15 51.5 L 0 52 L 0 0 Z M 27 4 L 27 7 L 31 12 Q 33 22 27 26 Q 26 29 31 27 L 35 20 Q 36 12 33 8 Q 32 3 27 4 Z M 24 8 L 27 16 L 24 22 Q 23 25 27 24 L 30 19 L 29 11 Q 28 7 24 8 Z M 22 11 L 20 13 L 22 16 L 20 19 L 21 21 L 25 19 Q 26 14 24 13 Q 25 10 22 11 Z M 13 12 L 10 15 L 10 33 L 6 33 L 6 45 L 7 45 L 47 45 L 47 33 L 17 33 L 17 15 Q 17 11 13 12 Z " /><path fill="rgb(166,88,207)" stroke="rgb(166,88,207)" stroke-width="1" opacity="0.13725490196078433" d="M 12.5 12 L 15 12.5 L 11 14.5 L 10.5 33 L 10 14.5 L 12.5 12 Z " /><path fill="rgb(109,209,226)" stroke="rgb(109,209,226)" stroke-width="1" opacity="0.984313725490196" d="M 28.5 4 Q 35 8 34 19.5 L 29.5 26 L 28 25.5 Q 33.6 22.1 32 11.5 L 27 5.5 L 28.5 4 Z " /><path fill="rgb(109,209,226)" stroke="rgb(109,209,226)" stroke-width="1" opacity="0.984313725490196" d="M 25 9 L 28 10.5 L 29 18.5 L 27 23 Q 24.3 24.1 25 21.5 Q 28.8 19.8 27 12.5 L 25 9 Z " /><path fill="rgb(109,209,226)" stroke="rgb(109,209,226)" stroke-width="1" opacity="0.984313725490196" d="M 21.5 12 L 24 13.5 Q 25.3 18.8 22.5 20 L 22 17.5 L 23 15.5 L 21.5 12 Z " /><path fill="rgb(109,209,226)" stroke="rgb(109,209,226)" stroke-width="1" opacity="0.984313725490196" d="M 13.5 17 L 15 17.5 L 15 25 L 12 25 L 12 18.5 L 13.5 17 Z " /><path fill="rgb(109,209,226)" stroke="rgb(109,209,226)" stroke-width="1" opacity="0.984313725490196" d="M 10 38 Q 13 37 12 40 Q 9 41 10 38 Z " /><path fill="rgb(134,51,158)" stroke="rgb(134,51,158)" stroke-width="1" opacity="0.9607843137254902" d="M 45.5 35 L 47 35.5 L 47 44 L 27 43.5 L 29.5 41 L 41.5 41 L 43 39.5 Q 42.5 35.5 45.5 35 Z " /><path fill="rgb(134,51,158)" stroke="rgb(134,51,158)" stroke-width="1" opacity="0.9607843137254902" d="M 10.5 37 L 13 38.5 L 11.5 41 L 9 39.5 L 10.5 37 Z M 10 38 Q 9 41 12 40 Q 13 37 10 38 Z " /><path fill="rgb(158,52,197)" stroke="rgb(158,52,197)" stroke-width="1" opacity="0.7019607843137254" d="M 12.5 13 L 11.5 15 L 12.5 13 Z " /><path fill="rgb(158,52,197)" stroke="rgb(158,52,197)" stroke-width="1" opacity="0.7019607843137254" d="M 16.5 15 L 17 33 L 45.5 33 L 47 34.5 L 45.5 34 L 17.5 34 L 16 32.5 L 16.5 15 Z " /><path fill="rgb(158,52,197)" stroke="rgb(158,52,197)" stroke-width="1" opacity="0.7019607843137254" d="M 7.5 33 L 11 33.5 L 6.5 35 L 7.5 33 Z " /><path fill="rgb(158,52,197)" stroke="rgb(158,52,197)" stroke-width="1" opacity="0.7019607843137254" d="M 6.5 43 L 7.5 44 L 46 44.5 L 7.5 45 L 6.5 43 Z " /><path fill="rgb(160,59,194)" stroke="rgb(160,59,194)" stroke-width="1" opacity="0.996078431372549" d="M 13.5 13 L 16 14.5 L 16 32.5 L 17.5 34 L 46 34.5 L 41.5 41 L 29.5 41 L 26.5 44 L 7.5 44 Q 4.3 42.3 6 35.5 Q 7.2 33 11 34 L 11 15.5 L 13.5 13 Z M 14 17 L 12 19 L 12 25 L 15 25 L 15 18 L 14 17 Z M 11 37 L 9 40 L 12 41 L 13 39 L 11 37 Z " /></svg>