<svg width="52" height="52" version="1.1" xmlns="http://www.w3.org/2000/svg" desc="Created with imagetracer.js version 1.2.6" ><path fill="rgb(60,217,234)" stroke="rgb(60,217,234)" stroke-width="1" opacity="0.9294117647058824" d="M 33.5 6 Q 38 5 39 7.5 L 32 14.5 L 38.5 21 L 45.5 14 L 47 15.5 Q 47.2 24.7 41.5 28 L 34.5 30 Q 27.9 29.1 25 24.5 L 23 17.5 Q 23.9 10.9 28.5 8 L 33.5 6 Z " /><path fill="rgb(0,0,0)" stroke="rgb(0,0,0)" stroke-width="1" opacity="0" d="M 0 0 L 52 0 L 52 52 L 0 52 L 0 0 Z M 31 6 L 29 7 L 23 14 L 23 23 L 15 31 L 9 33 L 6 37 L 7 45 Q 10 48 18 47 Q 22 45 22 39 L 31 30 Q 39 32 43 28 Q 49 25 47 13 L 39 20 L 33 15 L 40 8 L 40 6 L 31 6 Z " /><path fill="rgb(0,0,0)" stroke="rgb(0,0,0)" stroke-width="1" opacity="0" d="M 12.5 37 L 16 38.5 L 14.5 42 L 11 40.5 L 12.5 37 Z " /><path fill="rgb(28,196,224)" stroke="rgb(28,196,224)" stroke-width="1" opacity="0.6666666666666666" d="M 30.5 6 L 33 6.5 Q 27.8 7.3 25.5 11 L 28.5 7 L 30.5 6 Z " /><path fill="rgb(28,196,224)" stroke="rgb(28,196,224)" stroke-width="1" opacity="0.6666666666666666" d="M 38.5 6 Q 40.8 5.3 40 7.5 L 33 14.5 L 38.5 20 L 47 13 L 46.5 15 L 45.5 14 L 38.5 21 L 32 14.5 L 39 7.5 L 38.5 6 Z " /><path fill="rgb(28,196,224)" stroke="rgb(28,196,224)" stroke-width="1" opacity="0.6666666666666666" d="M 24.5 12 L 24 13.5 L 23.5 17 L 23 13.5 L 24.5 12 Z " /><path fill="rgb(28,196,224)" stroke="rgb(28,196,224)" stroke-width="1" opacity="0.6666666666666666" d="M 23.5 19 L 24 21.5 L 23 21.5 L 23.5 19 Z " /><path fill="rgb(28,196,224)" stroke="rgb(28,196,224)" stroke-width="1" opacity="0.6666666666666666" d="M 46.5 20 L 47 22.5 L 42.5 28 L 45 24.5 L 46.5 20 Z " /><path fill="rgb(28,196,224)" stroke="rgb(28,196,224)" stroke-width="1" opacity="0.6666666666666666" d="M 40.5 28 L 39.5 30 L 36 29.5 L 40.5 28 Z " /><path fill="rgb(28,196,224)" stroke="rgb(28,196,224)" stroke-width="1" opacity="0.6666666666666666" d="M 31.5 29 L 34 29.5 L 31.5 30 L 31.5 29 Z " /><path fill="rgb(108,23,255)" stroke="rgb(108,23,255)" stroke-width="1" opacity="0.8431372549019608" d="M 23.5 23 L 15.5 32 L 23.5 23 Z " /><path fill="rgb(108,23,255)" stroke="rgb(108,23,255)" stroke-width="1" opacity="0.8431372549019608" d="M 29.5 29 L 21.5 38 L 29.5 29 Z " /><path fill="rgb(108,23,255)" stroke="rgb(108,23,255)" stroke-width="1" opacity="0.8431372549019608" d="M 9.5 33 L 7.5 36 L 9.5 33 Z " /><path fill="rgb(108,23,255)" stroke="rgb(108,23,255)" stroke-width="1" opacity="0.8431372549019608" d="M 11.5 36 L 10.5 38 L 11.5 36 Z " /><path fill="rgb(108,23,255)" stroke="rgb(108,23,255)" stroke-width="1" opacity="0.8431372549019608" d="M 15.5 36 L 16.5 38 L 15.5 36 Z " /><path fill="rgb(108,23,255)" stroke="rgb(108,23,255)" stroke-width="1" opacity="0.8431372549019608" d="M 6.5 37 L 7 41.5 L 6 41.5 L 6.5 37 Z " /><path fill="rgb(108,23,255)" stroke="rgb(108,23,255)" stroke-width="1" opacity="0.8431372549019608" d="M 7.5 43 L 9.5 46 L 7.5 43 Z " /><path fill="rgb(108,25,254)" stroke="rgb(108,25,254)" stroke-width="1" opacity="0.996078431372549" d="M 24.5 23 L 28.5 28 L 30 28.5 L 21 37.5 L 19 45 L 13.5 47 L 7 42.5 Q 5.5 34.5 10.5 33 L 15.5 32 L 24.5 23 Z M 12 36 L 10 38 Q 9 42 13 43 L 16 42 Q 19 43 17 38 Q 16 35 12 36 Z " /><path fill="rgb(102,24,254)" stroke="rgb(102,24,254)" stroke-width="1" opacity="0.19215686274509805" d="M 23.5 22 L 14.5 32 L 12 31.5 L 14.5 31 L 23.5 22 Z " /><path fill="rgb(102,24,254)" stroke="rgb(102,24,254)" stroke-width="1" opacity="0.19215686274509805" d="M 30.5 29 L 22 38.5 L 21.5 41 L 21 38.5 L 30.5 29 Z " /><path fill="rgb(102,24,254)" stroke="rgb(102,24,254)" stroke-width="1" opacity="0.19215686274509805" d="M 8.5 33 L 7.5 35 L 8.5 33 Z " /><path fill="rgb(102,24,254)" stroke="rgb(102,24,254)" stroke-width="1" opacity="0.19215686274509805" d="M 12.5 36 Q 16.5 35.5 17 38.5 Q 17.5 42.5 14.5 43 L 13 42.5 L 16 40.5 L 14.5 37 L 11 38.5 L 10.5 40 L 10 38.5 L 12.5 36 Z " /><path fill="rgb(102,24,254)" stroke="rgb(102,24,254)" stroke-width="1" opacity="0.19215686274509805" d="M 20.5 42 L 21 43.5 L 16.5 47 L 16.5 46 L 20 43.5 L 20.5 42 Z " /><path fill="rgb(102,24,254)" stroke="rgb(102,24,254)" stroke-width="1" opacity="0.19215686274509805" d="M 7.5 44 L 8.5 46 L 7.5 44 Z " /></svg>